<?xml version="1.0" standalone="no"?>
<!DOCTYPE svg PUBLIC "-//W3C//DTD SVG 20010904//EN"
 "http://www.w3.org/TR/2001/REC-SVG-20010904/DTD/svg10.dtd">
<svg version="1.0" xmlns="http://www.w3.org/2000/svg"
 width="260.000000pt" height="260.000000pt" viewBox="0 0 260.000000 260.000000"
 preserveAspectRatio="xMidYMid meet">
<metadata>
Created by potrace 1.14, written by Peter Selinger 2001-2017
</metadata>
<g transform="translate(0.000000,260.000000) scale(0.100000,-0.100000)"
fill="#000000" stroke="none">
<path d="M268 2571 c-115 -37 -203 -127 -240 -243 -17 -56 -18 -114 -18 -1028
0 -914 1 -972 18 -1028 37 -118 126 -207 243 -243 58 -18 109 -19 1029 -19
920 0 971 1 1029 19 117 36 206 125 243 243 17 56 18 114 18 1028 0 914 -1
972 -18 1028 -37 118 -126 207 -243 243 -58 18 -109 19 -1032 18 -912 0 -976
-1 -1029 -18z m747 -216 c33 -13 55 -46 55 -80 0 -7 -12 -27 -26 -44 -21 -25
-33 -31 -65 -31 -95 0 -121 118 -34 156 37 16 30 16 70 -1z m640 1 c60 -26 76
-98 29 -135 -49 -39 -116 -23 -139 32 -18 42 -2 85 39 103 38 16 31 16 71 0z
m-974 -235 c41 -52 -6 -135 -77 -135 -86 0 -104 124 -22 158 40 17 74 9 99
-23z m1374 -3 c33 -40 32 -73 -5 -110 -26 -25 -36 -29 -62 -24 -85 17 -112
121 -40 157 41 21 76 14 107 -23z m-907 -64 c33 -37 30 -86 -9 -118 -41 -35
-83 -34 -120 3 -35 35 -37 68 -8 105 41 52 96 56 137 10z m407 22 c38 -16 55
-42 55 -84 0 -39 -49 -82 -92 -82 -35 0 -88 47 -88 79 0 36 24 74 55 87 37 16
30 16 70 0z m-706 -161 c33 -16 41 -33 41 -81 0 -48 -37 -84 -85 -84 -70 0
-110 80 -69 138 28 41 69 50 113 27z m1004 -13 c31 -28 39 -59 23 -97 -26 -62
-89 -74 -137 -26 -31 31 -36 64 -18 105 22 47 90 56 132 18z m-644 -117 c34
-17 55 -62 45 -99 -13 -53 -84 -83 -135 -56 -11 6 -19 7 -18 3 12 -72 -67
-127 -133 -92 -11 6 -26 26 -34 45 -12 29 -12 39 0 67 21 51 69 67 129 42 13
-6 17 -2 17 17 0 42 43 85 88 87 7 1 26 -6 41 -14z m281 -12 c22 -20 31 -38
32 -60 1 -31 2 -31 24 -16 29 19 84 11 108 -16 9 -10 19 -35 23 -54 5 -31 1
-40 -25 -67 -39 -38 -79 -40 -121 -4 -22 18 -31 35 -31 55 0 26 -2 28 -19 19
-94 -50 -182 76 -100 144 39 33 71 33 109 -1z m-1152 -188 c48 -34 43 -112
-10 -149 -53 -38 -118 2 -118 72 0 73 71 116 128 77z m2029 -9 c22 -19 28 -32
28 -66 0 -74 -72 -114 -128 -70 -14 11 -28 34 -32 51 -19 84 68 140 132 85z
m-1738 -41 c56 -29 58 -125 3 -154 -84 -45 -170 50 -116 127 28 41 69 50 113
27z m651 5 c12 -6 28 -6 48 1 56 19 172 -50 172 -103 0 -13 9 -29 20 -35 47
-30 50 -166 4 -202 -13 -10 -24 -28 -24 -39 0 -48 -105 -120 -158 -108 -31 8
-35 8 -82 0 -51 -8 -140 47 -154 95 -5 19 -20 44 -33 57 -20 20 -23 33 -23 92
0 59 3 73 23 93 13 13 27 36 31 51 8 34 39 65 91 89 46 21 59 23 85 9z m789
-17 c43 -40 45 -90 6 -128 -72 -73 -188 29 -129 113 33 47 82 53 123 15z
m-1127 -69 c38 -35 28 -130 -16 -147 -12 -5 -9 -12 14 -36 40 -40 40 -82 1
-122 -40 -39 -82 -39 -122 0 -39 39 -39 83 -1 121 l28 28 -28 31 c-43 48 -35
105 20 136 31 17 77 12 104 -11z m846 -10 c32 -37 30 -89 -6 -122 l-27 -25 27
-28 c40 -39 39 -88 -3 -123 -50 -42 -105 -32 -135 25 -19 38 -11 82 21 108
l24 18 -24 23 c-30 28 -39 66 -24 102 25 60 103 72 147 22z m-1154 -235 c39
-31 49 -63 32 -104 -25 -60 -84 -72 -135 -29 -85 72 16 201 103 133z m1428 10
c11 -6 26 -26 34 -46 14 -31 13 -38 -3 -71 -29 -59 -97 -69 -143 -20 -63 68
29 181 112 137z m-1748 -49 c39 -14 66 -65 55 -102 -13 -46 -37 -68 -76 -68
-88 0 -116 123 -38 168 25 14 28 14 59 2z m2031 -2 c29 -13 55 -55 55 -88 0
-33 -53 -80 -90 -80 -86 0 -108 122 -29 166 30 17 32 17 64 2z m-1268 -131
c13 -12 24 -35 25 -50 2 -20 6 -26 18 -21 54 23 101 10 125 -36 31 -60 -11
-130 -77 -130 -38 0 -88 48 -88 85 0 22 -3 24 -19 15 -49 -26 -105 -6 -127 45
-38 92 73 163 143 92z m576 5 c10 -10 20 -35 24 -55 5 -31 1 -40 -26 -68 -32
-32 -64 -36 -114 -14 -13 5 -18 4 -17 -6 5 -32 -1 -51 -25 -74 -54 -55 -145
-15 -145 63 0 65 61 108 122 84 25 -9 28 -8 28 12 0 28 26 65 54 76 29 13 77
3 99 -18z m-794 -218 c26 -21 31 -33 31 -69 0 -35 -5 -48 -26 -64 -61 -48
-143 -8 -144 71 0 28 7 42 31 62 17 14 41 26 54 26 13 0 37 -12 54 -26z m980
11 c16 -8 34 -28 40 -46 30 -87 -80 -159 -144 -94 -36 35 -34 88 4 126 33 32
58 36 100 14z m-691 -181 c32 -36 29 -79 -8 -116 -27 -26 -36 -30 -68 -25 -43
7 -82 46 -82 83 0 83 103 121 158 58z m439 4 c51 -48 6 -148 -67 -148 -38 0
-90 47 -90 82 1 85 95 124 157 66z m-924 -68 c64 -51 30 -150 -53 -150 -10 0
-32 12 -49 26 -60 50 -32 144 43 144 18 0 45 -9 59 -20z m1389 3 c52 -59 9
-153 -69 -153 -26 0 -63 28 -74 56 -11 30 10 87 38 103 29 17 88 13 105 -6z
m-1012 -218 c11 -12 23 -35 26 -53 5 -26 1 -36 -25 -63 -28 -27 -37 -31 -69
-26 -64 11 -105 85 -69 129 33 42 104 49 137 13z m653 -6 c26 -33 22 -76 -12
-110 -16 -16 -39 -29 -50 -29 -91 0 -129 112 -52 155 34 20 91 12 114 -16z"/>
<path d="M1257 1368 c-37 -22 -38 -24 -35 -72 3 -46 6 -50 42 -69 l39 -21 36
21 c33 19 36 25 39 70 3 48 2 49 -36 71 -22 12 -41 22 -43 22 -2 0 -21 -10
-42 -22z m73 -53 c10 -12 10 -18 0 -30 -26 -31 -77 -6 -56 27 13 22 39 23 56
3z"/>
</g>
</svg>
